{
  "accessors": [
    {
      "bufferView": 0,
      "byteOffset": 0,
      "componentType": 5123,
      "count": 51552,
      "max": [
        12668.0
      ],
      "min": [
        0.0
      ],
      "name": "buffer-0-group-0-mesh-0-indices",
      "type": "SCALAR"
    },
    {
      "bufferView": 1,
      "byteOffset": 0,
      "componentType": 5126,
      "count": 12669,
      "max": [
        0.0492371991276741,
        0.13220800459384918,
        0.13797500729560852
      ],
      "min": [
        -0.05102759972214699,
        0.01120069995522499,
        -0.14467200636863708
      ],
      "name": "buffer-0-group-0-mesh-0-position",
      "type": "VEC3"
    },
    {
      "bufferView": 1,
      "byteOffset": 152028,
      "componentType": 5126,
      "count": 12669,
      "max": [
        0.9999971389770508,
        0.9999487996101379,
        0.9999737739562988
      ],
      "min": [
        -0.9999789595603943,
        -0.9996680617332458,
        -0.9998343586921692
      ],
      "name": "buffer-0-group-0-mesh-0-normal",
      "type": "VEC3"
    },
    {
      "bufferView": 2,
      "byteOffset": 0,
      "componentType": 5126,
      "count": 12669,
      "max": [
        0.991379976272583,
        -0.015168899670243263
      ],
      "min": [
        0.022052500396966934,
        -0.9972119927406311
      ],
      "name": "buffer-0-group-0-mesh-0-texcoord",
      "type": "VEC2"
    },
    {
      "bufferView": 0,
      "byteOffset": 103104,
      "componentType": 5123,
      "count": 28185,
      "max": [
        11292.0
      ],
      "min": [
        0.0
      ],
      "name": "buffer-0-group-1-mesh-0-indices",
      "type": "SCALAR"
    },
    {
      "bufferView": 1,
      "byteOffset": 304056,
      "componentType": 5126,
      "count": 11293,
      "max": [
        0.05410350114107132,
        0.041603099554777145,
        0.1395770013332367
      ],
      "min": [
        -0.05473979935050011,
        -0.00201608007773757,
        -0.1524209976196289
      ],
      "name": "buffer-0-group-1-mesh-0-position",
      "type": "VEC3"
    },
    {
      "bufferView": 1,
      "byteOffset": 439572,
      "componentType": 5126,
      "count": 11293,
      "max": [
        0.9999927878379822,
        0.9999997019767761,
        0.9998904466629028
      ],
      "min": [
        -0.9999715089797974,
        -1.0,
        -0.9998108744621277
      ],
      "name": "buffer-0-group-1-mesh-0-normal",
      "type": "VEC3"
    },
    {
      "bufferView": 2,
      "byteOffset": 101352,
      "componentType": 5126,
      "count": 11293,
      "max": [
        0.9853649735450745,
        -0.016976499930024147
      ],
      "min": [
        0.03885189816355705,
        -0.9510650038719177
      ],
      "name": "buffer-0-group-1-mesh-0-texcoord",
      "type": "VEC2"
    }
  ],
  "asset": {
    "generator": "Obj2GltfConverter",
    "version": "2.0"
  },
  "bufferViews": [
    {
      "buffer": 0,
      "byteLength": 159474,
      "byteOffset": 0,
      "name": "buffer-0-bufferview-ushort",
      "target": 34963
    },
    {
      "buffer": 0,
      "byteLength": 575088,
      "byteOffset": 159480,
      "byteStride": 12,
      "name": "buffer-0-bufferview-vec3",
      "target": 34962
    },
    {
      "buffer": 0,
      "byteLength": 191696,
      "byteOffset": 734568,
      "byteStride": 8,
      "name": "buffer-0-bufferview-vec2",
      "target": 34962
    }
  ],
  "buffers": [
    {
      "byteLength": 926264,
      "name": "buffer-0",
      "uri": "CruzV2.bin"
    }
  ],
  "images": [
    {
      "mimeType": "image/jpeg",
      "name": "Upper-base-image",
      "uri": "Upper_base.jpg"
    },
    {
      "mimeType": "image/jpeg",
      "name": "Upper-metallic_roughness-image",
      "uri": "Upper_metallic_roughness.jpg"
    },
    {
      "mimeType": "image/jpeg",
      "name": "Upper-normal-image",
      "uri": "Upper_normal.jpg"
    },
    {
      "mimeType": "image/jpeg",
      "name": "Upper-occlusion-image",
      "uri": "Upper_occlusion.jpg"
    },
    {
      "mimeType": "image/jpeg",
      "name": "Tooling-base-image",
      "uri": "Tooling_base.jpg"
    },
    {
      "mimeType": "image/jpeg",
      "name": "Tooling-normal-image",
      "uri": "Tooling_normal.jpg"
    }
  ],
  "materials": [
    {
      "alphaMode": "OPAQUE",
      "doubleSided": true,
      "name": "Upper",
      "normalTexture": {
        "index": 2,
        "texCoord": 0
      },
      "occlusionTexture": {
        "index": 3,
        "texCoord": 0
      },
      "pbrMetallicRoughness": {
        "baseColorFactor": [
          1.0,
          1.0,
          1.0,
          1.0
        ],
        "baseColorTexture": {
          "index": 0,
          "texCoord": 0
        },
        "metallicRoughnessTexture": {
          "index": 1,
          "texCoord": 0
        }
      }
    },
    {
      "alphaMode": "OPAQUE",
      "doubleSided": true,
      "name": "Tooling",
      "normalTexture": {
        "index": 5,
        "texCoord": 0
      },
      "pbrMetallicRoughness": {
        "baseColorFactor": [
          1.0,
          1.0,
          1.0,
          1.0
        ],
        "baseColorTexture": {
          "index": 4,
          "texCoord": 0
        },
        "metallicFactor": 0.0,
        "roughnessFactor": 0.45119453158947354
      }
    }
  ],
  "meshes": [
    {
      "name": "buffer-0-mesh-0",
      "primitives": [
        {
          "attributes": {
            "POSITION": 1,
            "NORMAL": 2,
            "TEXCOORD_0": 3
          },
          "indices": 0,
          "material": 0,
          "mode": 4
        },
        {
          "attributes": {
            "POSITION": 5,
            "NORMAL": 6,
            "TEXCOORD_0": 7
          },
          "indices": 4,
          "material": 1,
          "mode": 4
        }
      ]
    }
  ],
  "nodes": [
    {
      "mesh": 0,
      "name": "node-0"
    }
  ],
  "samplers": [
    {
      "name": "Upper-base-sampler",
      "wrapS": 10497,
      "wrapT": 10497
    },
    {
      "name": "Upper-metallic_roughness-sampler",
      "wrapS": 10497,
      "wrapT": 10497
    },
    {
      "name": "Upper-normal-sampler",
      "wrapS": 10497,
      "wrapT": 10497
    },
    {
      "name": "Upper-occlusion-sampler",
      "wrapS": 10497,
      "wrapT": 10497
    },
    {
      "name": "Tooling-base-sampler",
      "wrapS": 10497,
      "wrapT": 10497
    },
    {
      "name": "Tooling-normal-sampler",
      "wrapS": 10497,
      "wrapT": 10497
    }
  ],
  "scenes": [
    {
      "name": "scene-0",
      "nodes": [
        0
      ]
    }
  ],
  "textures": [
    {
      "name": "Upper-base-texture",
      "sampler": 0,
      "source": 0
    },
    {
      "name": "Upper-metallic_roughness-texture",
      "sampler": 1,
      "source": 1
    },
    {
      "name": "Upper-normal-texture",
      "sampler": 2,
      "source": 2
    },
    {
      "name": "Upper-occlusion-texture",
      "sampler": 3,
      "source": 3
    },
    {
      "name": "Tooling-base-texture",
      "sampler": 4,
      "source": 4
    },
    {
      "name": "Tooling-normal-texture",
      "sampler": 5,
      "source": 5
    }
  ]
}